<?xml version="1.0" encoding="UTF-8" standalone="no"?><!-- Generator: Gravit.io --><svg xmlns="http://www.w3.org/2000/svg" xmlns:xlink="http://www.w3.org/1999/xlink" style="isolation:isolate" viewBox="0 0 256 256" width="256pt" height="256pt"><g><path d=" M 90.04 24.701 C 84.691 28.411 82.103 34.191 83.483 39.627 C 84.26 42.56 89.867 48.685 91.765 48.685 C 94.957 48.685 95.475 50.756 94.871 61.195 L 94.267 71.117 L 97.459 76.983 C 105.742 91.65 108.503 98.465 112.212 112.873 C 115.577 126.332 115.146 141.689 111.091 156.183 C 110.401 158.598 109.71 161.445 109.452 162.394 C 109.106 164.551 102.463 179.045 99.789 183.704 C 97.114 188.277 92.714 197.681 92.11 200.096 C 90.989 204.669 103.499 222.269 112.212 228.222 C 121.875 234.865 134.126 234.865 143.789 228.222 C 152.502 222.269 165.012 204.669 163.89 200.096 C 163.287 197.681 158.887 188.277 156.212 183.704 C 153.538 179.045 146.894 164.551 146.549 162.394 C 146.291 161.445 145.6 158.598 144.91 156.183 C 142.408 147.297 141.718 142.12 141.718 131.853 C 141.632 114.081 146.463 98.465 158.541 76.983 L 161.734 71.117 L 161.13 61.195 C 160.526 50.756 161.043 48.685 164.236 48.685 C 166.134 48.685 171.741 42.56 172.518 39.627 C 174.502 31.603 167.687 22.803 159.318 22.803 C 148.189 22.803 141.891 33.674 147.412 43.336 L 149.569 47.046 L 147.93 50.325 C 144.565 56.881 135.42 62.489 128 62.489 C 120.581 62.489 111.436 56.881 108.071 50.325 L 106.432 47.046 L 108.589 43.336 C 111.177 38.764 111.35 34.278 109.02 29.705 C 105.742 23.234 95.993 20.733 90.04 24.701 Z  M 114.628 202.167 C 119.459 204.669 121.357 207.602 120.408 211.139 L 119.804 213.555 L 115.922 210.794 C 109.279 206.049 107.295 203.806 107.295 201.218 C 107.295 198.543 107.554 198.543 114.628 202.167 Z  M 147.671 204.582 C 147.067 205.359 144.22 207.688 141.373 209.759 L 136.196 213.555 L 135.593 211.139 C 134.557 207.343 136.542 204.669 142.667 201.649 L 148.275 198.802 L 148.534 201.045 C 148.706 202.253 148.275 203.806 147.671 204.582 Z " fill="rgb(9,0,0)"/><path d=" M 27.319 53.603 C 25.766 54.207 25.852 71.893 27.405 77.587 C 28.699 82.677 31.374 88.113 33.875 90.701 C 40.605 97.862 46.299 99.587 69.334 101.312 C 79.342 102.089 80.377 102.003 83.742 100.363 C 88.918 97.862 90.903 94.756 90.903 89.148 C 90.903 85.265 90.385 83.799 87.883 80.175 C 82.965 73.015 68.989 62.317 61.483 59.987 C 59.844 59.556 56.22 58.262 53.373 57.226 C 45.177 54.293 30.511 52.223 27.319 53.603 Z " fill="rgb(9,0,0)"/><path d=" M 214.274 54.293 C 210.737 54.897 205.475 56.191 202.627 57.226 C 199.78 58.262 196.157 59.556 194.518 59.987 C 187.012 62.317 173.035 73.015 168.118 80.175 C 165.616 83.799 165.098 85.265 165.098 89.148 C 165.098 94.756 167.083 97.862 172.259 100.363 C 175.624 102.003 176.659 102.089 186.667 101.312 C 205.475 99.846 212.808 98.293 217.467 94.756 C 226.525 87.854 229.804 79.744 229.804 63.697 C 229.804 52.999 229.804 52.913 223.937 53.085 C 222.212 53.172 217.812 53.689 214.274 54.293 Z " fill="rgb(9,0,0)"/><path d=" M 75.287 122.967 C 73.648 124.606 73.475 125.469 73.993 130.387 C 74.597 136.512 77.099 143.759 79.342 146.261 C 80.463 147.555 80.895 149.712 80.981 155.924 C 81.154 163.861 82.965 172.489 85.381 176.112 C 88.056 180.339 92.628 177.751 95.907 170.332 C 99.703 161.791 103.844 146.951 103.844 141.689 C 103.844 138.324 100.306 132.199 97.632 130.904 C 96.51 130.387 93.836 129.352 91.679 128.575 C 89.436 127.799 85.812 125.814 83.483 124.175 C 78.565 120.638 77.703 120.552 75.287 122.967 Z " fill="rgb(9,0,0)"/><path d=" M 172.518 124.175 C 170.188 125.814 166.565 127.799 164.322 128.575 C 162.165 129.352 159.49 130.387 158.369 130.904 C 155.694 132.199 152.157 138.324 152.157 141.689 C 152.157 146.951 156.298 161.791 160.094 170.332 C 166.651 185.085 174.243 177.924 174.934 156.269 C 175.106 149.885 175.537 147.469 176.659 146.261 C 178.902 143.759 181.404 136.512 182.008 130.387 C 182.526 125.469 182.353 124.606 180.714 122.967 C 178.298 120.552 177.435 120.638 172.518 124.175 Z " fill="rgb(9,0,0)"/></g></svg>