<?xml version="1.0" encoding="UTF-8" standalone="no"?><!-- Generator: Gravit.io --><svg xmlns="http://www.w3.org/2000/svg" xmlns:xlink="http://www.w3.org/1999/xlink" style="isolation:isolate" viewBox="0 0 256 256" width="256pt" height="256pt"><path d=" M 256 128 C 256 198.692 198.692 256 128 256 C 57.308 256 0 198.692 0 128 C 0 57.308 57.308 0 128 0 C 198.692 0 256 57.308 256 128 Z " fill="rgb(0,0,0)"/><g><path d=" M 96.825 43.165 C 92.432 46.211 90.306 50.958 91.44 55.422 C 92.078 57.831 96.683 62.862 98.242 62.862 C 100.863 62.862 101.289 64.562 100.793 73.136 L 100.297 81.284 L 102.918 86.102 C 109.72 98.147 111.987 103.744 115.034 115.577 C 117.797 126.63 117.443 139.242 114.113 151.145 C 113.546 153.129 112.979 155.468 112.767 156.247 C 112.483 158.018 107.028 169.922 104.831 173.748 C 102.635 177.503 99.021 185.226 98.525 187.21 C 97.604 190.965 107.878 205.419 115.034 210.308 C 122.97 215.764 133.031 215.764 140.967 210.308 C 148.123 205.419 158.397 190.965 157.475 187.21 C 156.979 185.226 153.366 177.503 151.17 173.748 C 148.973 169.922 143.517 158.018 143.234 156.247 C 143.021 155.468 142.455 153.129 141.888 151.145 C 139.833 143.848 139.266 139.596 139.266 131.165 C 139.195 116.569 143.163 103.744 153.083 86.102 L 155.704 81.284 L 155.208 73.136 C 154.712 64.562 155.137 62.862 157.759 62.862 C 159.318 62.862 163.923 57.831 164.561 55.422 C 166.19 48.833 160.593 41.606 153.72 41.606 C 144.58 41.606 139.408 50.533 143.942 58.469 L 145.714 61.516 L 144.368 64.208 C 141.604 69.593 134.094 74.198 128 74.198 C 121.907 74.198 114.396 69.593 111.633 64.208 L 110.287 61.516 L 112.058 58.469 C 114.184 54.714 114.326 51.029 112.413 47.274 C 109.72 41.96 101.714 39.905 96.825 43.165 Z  M 117.018 188.91 C 120.986 190.965 122.545 193.374 121.765 196.279 L 121.269 198.263 L 118.081 195.996 C 112.625 192.099 110.996 190.257 110.996 188.131 C 110.996 185.935 111.208 185.935 117.018 188.91 Z  M 144.155 190.894 C 143.659 191.532 141.321 193.445 138.983 195.146 L 134.731 198.263 L 134.235 196.279 C 133.385 193.162 135.015 190.965 140.045 188.485 L 144.651 186.147 L 144.864 187.989 C 145.005 188.981 144.651 190.257 144.155 190.894 Z " fill="rgb(255,255,255)"/><path d=" M 45.314 66.9 C 44.039 67.396 44.11 81.921 45.385 86.598 C 46.448 90.778 48.644 95.242 50.699 97.368 C 56.226 103.248 60.902 104.665 79.82 106.083 C 88.039 106.72 88.889 106.649 91.652 105.303 C 95.904 103.248 97.533 100.698 97.533 96.092 C 97.533 92.904 97.108 91.699 95.053 88.723 C 91.015 82.843 79.536 74.057 73.372 72.144 C 72.026 71.789 69.05 70.727 66.712 69.876 C 59.981 67.467 47.936 65.767 45.314 66.9 Z " fill="rgb(255,255,255)"/><path d=" M 198.854 67.467 C 195.949 67.963 191.627 69.026 189.289 69.876 C 186.951 70.727 183.975 71.789 182.629 72.144 C 176.464 74.057 164.986 82.843 160.947 88.723 C 158.893 91.699 158.467 92.904 158.467 96.092 C 158.467 100.698 160.097 103.248 164.348 105.303 C 167.112 106.649 167.962 106.72 176.181 106.083 C 191.627 104.878 197.649 103.603 201.476 100.698 C 208.915 95.029 211.608 88.369 211.608 75.19 C 211.608 66.405 211.608 66.334 206.79 66.475 C 205.373 66.546 201.759 66.971 198.854 67.467 Z " fill="rgb(255,255,255)"/><path d=" M 84.709 123.867 C 83.363 125.213 83.221 125.922 83.646 129.96 C 84.142 134.991 86.197 140.943 88.039 142.997 C 88.96 144.06 89.314 145.831 89.385 150.933 C 89.527 157.451 91.015 164.537 92.999 167.513 C 95.195 170.984 98.95 168.859 101.643 162.765 C 104.76 155.751 108.161 143.564 108.161 139.242 C 108.161 136.479 105.256 131.448 103.06 130.385 C 102.139 129.96 99.942 129.11 98.171 128.472 C 96.329 127.835 93.353 126.205 91.44 124.859 C 87.401 121.954 86.693 121.883 84.709 123.867 Z " fill="rgb(255,255,255)"/><path d=" M 164.561 124.859 C 162.648 126.205 159.672 127.835 157.83 128.472 C 156.058 129.11 153.862 129.96 152.941 130.385 C 150.744 131.448 147.839 136.479 147.839 139.242 C 147.839 143.564 151.24 155.751 154.358 162.765 C 159.743 174.881 165.978 169.001 166.545 151.216 C 166.686 145.973 167.041 143.989 167.962 142.997 C 169.804 140.943 171.859 134.991 172.355 129.96 C 172.78 125.922 172.638 125.213 171.292 123.867 C 169.308 121.883 168.599 121.954 164.561 124.859 Z " fill="rgb(255,255,255)"/></g></svg>