<?xml version="1.0" encoding="iso-8859-1"?>
<!-- Generator: Adobe Illustrator 19.0.0, SVG Export Plug-In . SVG Version: 6.00 Build 0)  -->
<svg version="1.1" id="Layer_1" xmlns="http://www.w3.org/2000/svg" xmlns:xlink="http://www.w3.org/1999/xlink" x="0px" y="0px"
	 viewBox="0 0 512.001 512.001" style="enable-background:new 0 0 512.001 512.001;" xml:space="preserve">
<g>
	<g>
		<path d="M512.001,89.754V0h-89.754v36.947H300.878V0h-89.754v36.947H89.755V0H0.001v89.754h36.947v332.492H0.001v89.754h89.754
			v-31.669h121.368v31.669h89.754v-31.669h121.368v31.669h89.754v-89.754h-36.947V89.754H512.001z M226.985,15.861h58.032v58.032
			h-58.032V15.861z M15.862,73.893V15.861h58.032v58.032H15.862z M73.894,496.139H15.862v-58.032h58.032V496.139z M285.016,496.139
			h-58.032v-58.032h58.032V496.139z M422.247,464.47H300.878v-42.224h-89.754v42.224H89.755v-42.224H52.808V89.754h36.947V52.808
			h121.368v36.947h89.754V52.808h121.368v36.947h36.945v332.491h-36.944V464.47z M496.139,438.107v58.032h-58.032v-58.032H496.139z
			 M438.108,73.893V15.861h58.032v58.032H438.108z"/>
	</g>
</g>
<g>
	<g>
		<rect x="34.321" y="36.947" width="21.113" height="15.861"/>
	</g>
</g>
<g>
	<g>
		<rect x="34.321" y="459.188" width="21.113" height="15.861"/>
	</g>
</g>
<g>
	<g>
		<rect x="245.44" y="459.188" width="21.113" height="15.861"/>
	</g>
</g>
<g>
	<g>
		<rect x="245.44" y="36.947" width="21.113" height="15.861"/>
	</g>
</g>
<g>
	<g>
		<rect x="456.566" y="36.947" width="21.113" height="15.861"/>
	</g>
</g>
<g>
	<g>
		<rect x="456.566" y="459.188" width="21.113" height="15.861"/>
	</g>
</g>
<g>
	<g>
		<path d="M309.04,122.453H202.961L102.13,396.94h96.364l26.39-84.449h62.233l26.39,84.449h96.363L309.04,122.453z M298.778,296.63
			h-85.553l-26.39,84.449h-61.979l89.179-242.764h83.933l89.179,242.764h-61.979L298.778,296.63z"/>
	</g>
</g>
<g>
	<g>
		<path d="M277.551,185.79h-43.1l-26.4,79.198h95.898L277.551,185.79z M245.883,201.651h20.237l15.825,47.475h-51.888
			L245.883,201.651z"/>
	</g>
</g>
<g>
</g>
<g>
</g>
<g>
</g>
<g>
</g>
<g>
</g>
<g>
</g>
<g>
</g>
<g>
</g>
<g>
</g>
<g>
</g>
<g>
</g>
<g>
</g>
<g>
</g>
<g>
</g>
<g>
</g>
</svg>
