<?xml version="1.0" encoding="UTF-8" standalone="no"?><!-- Generator: Gravit.io --><svg xmlns="http://www.w3.org/2000/svg" xmlns:xlink="http://www.w3.org/1999/xlink" style="isolation:isolate" viewBox="0 0 256 256" width="256pt" height="256pt"><defs><clipPath id="_clipPath_TdkkcJlC9Ahwkpj5iZuvIDbTFhqFqxXt"><rect width="256" height="256"/></clipPath></defs><g clip-path="url(#_clipPath_TdkkcJlC9Ahwkpj5iZuvIDbTFhqFqxXt)"><g><mask id="_mask_G2tMIfTcrJK7JSDMVYmwNypI4FGl9QA4"><circle vector-effect="non-scaling-stroke" cx="159.36990729357717" cy="127.99999999999999" r="88.63009270642283" fill="white" stroke="none"/></mask><circle vector-effect="non-scaling-stroke" cx="159.36990729357717" cy="127.99999999999999" r="88.63009270642283" fill="none"/><circle vector-effect="non-scaling-stroke" cx="159.36990729357717" cy="127.99999999999999" r="88.63009270642283" fill="none" mask="url(#_mask_G2tMIfTcrJK7JSDMVYmwNypI4FGl9QA4)" stroke-width="20" stroke="rgb(0,0,0)" stroke-linejoin="miter" stroke-linecap="square" stroke-miterlimit="3"/><clipPath id="_clipPath_Wzk2rRZI4xTUnAwDKl1nBhRpJPNJfteV"><circle vector-effect="non-scaling-stroke" cx="159.36990729357717" cy="127.99999999999999" r="88.63009270642283" fill="none"/><circle vector-effect="non-scaling-stroke" cx="159.36990729357717" cy="127.99999999999999" r="88.63009270642283" fill="none" mask="url(#_mask_G2tMIfTcrJK7JSDMVYmwNypI4FGl9QA4)" stroke-width="20" stroke="rgb(0,0,0)" stroke-linejoin="miter" stroke-linecap="square" stroke-miterlimit="3"/></clipPath><g clip-path="url(#_clipPath_Wzk2rRZI4xTUnAwDKl1nBhRpJPNJfteV)"><mask id="_mask_CYlVyqpIfOrU1VB8bykhiWiWaOB6VTik"><circle vector-effect="non-scaling-stroke" cx="159.36990729357717" cy="128" r="66.38686290109155" fill="white" stroke="none"/></mask><circle vector-effect="non-scaling-stroke" cx="159.36990729357717" cy="128" r="66.38686290109155" fill="none"/><circle vector-effect="non-scaling-stroke" cx="159.36990729357717" cy="128" r="66.38686290109155" fill="none" mask="url(#_mask_CYlVyqpIfOrU1VB8bykhiWiWaOB6VTik)" stroke-width="20" stroke="rgb(0,0,0)" stroke-linejoin="miter" stroke-linecap="square" stroke-miterlimit="3"/><clipPath id="_clipPath_0CVhe32FPpJBZ1mtSNV0k82vGAYn63Rn"><circle vector-effect="non-scaling-stroke" cx="159.36990729357717" cy="128" r="66.38686290109155" fill="none"/><circle vector-effect="non-scaling-stroke" cx="159.36990729357717" cy="128" r="66.38686290109155" fill="none" mask="url(#_mask_CYlVyqpIfOrU1VB8bykhiWiWaOB6VTik)" stroke-width="20" stroke="rgb(0,0,0)" stroke-linejoin="miter" stroke-linecap="square" stroke-miterlimit="3"/></clipPath><g clip-path="url(#_clipPath_0CVhe32FPpJBZ1mtSNV0k82vGAYn63Rn)"><circle vector-effect="non-scaling-stroke" cx="159.36990729357717" cy="128" r="44.25790860072766" fill="rgb(0,0,0)"/></g><circle vector-effect="non-scaling-stroke" cx="159.36990729357717" cy="128" r="66.38686290109155" fill="transparent" mask="url(#_mask_CYlVyqpIfOrU1VB8bykhiWiWaOB6VTik)" stroke-width="20" stroke="rgb(0,0,0)" stroke-linejoin="miter" stroke-linecap="square" stroke-miterlimit="3"/></g><circle vector-effect="non-scaling-stroke" cx="159.36990729357717" cy="127.99999999999999" r="88.63009270642283" fill="transparent" mask="url(#_mask_G2tMIfTcrJK7JSDMVYmwNypI4FGl9QA4)" stroke-width="20" stroke="rgb(0,0,0)" stroke-linejoin="miter" stroke-linecap="square" stroke-miterlimit="3"/><path d=" M 11.189 121.783 L 50.039 94.064 C 52.559 92.263 56.107 94.064 56.107 97.165 L 56.107 116.529 C 56.107 118.64 57.732 120.353 59.843 120.353 L 151.615 120.353 C 153.725 120.353 155.526 122.066 155.526 124.176 L 155.526 131.824 C 155.526 133.935 153.725 135.648 151.615 135.648 L 59.843 135.648 C 57.732 135.648 56.107 137.361 56.107 139.472 L 56.107 158.836 C 56.107 161.933 52.562 163.738 50.039 161.937 L 11.212 134.218 C 9.201 132.787 8.005 130.474 8 128.006 C 7.995 125.538 9.183 123.221 11.189 121.783 Z " fill="rgb(0,0,0)"/></g></g></svg>